HIERARCHY
ROOT Hips
{
    OFFSET 0.000000 0.000000 0.000000
    CHANNELS 6 Xposition Yposition Zposition Zrotation Xrotation Yrotation
    JOINT Spine
    {
        OFFSET -0.000000 14.517291 0.000000
        CHANNELS 3 Zrotation Xrotation Yrotation
        JOINT Spine1
        {
            OFFSET -0.000000 37.558300 0.000000
            CHANNELS 3 Zrotation Xrotation Yrotation
            JOINT Neck
            {
                OFFSET -0.000000 37.404057 3.400369
                CHANNELS 3 Zrotation Xrotation Yrotation
                JOINT Head
                {
                    OFFSET -0.000000 24.785618 -3.540803
                    CHANNELS 3 Zrotation Xrotation Yrotation
                    End Site
                    {
                        OFFSET -0.000000 35.408028 0.000000
                    }
                }
            }
            JOINT LeftShoulder
            {
                OFFSET 6.992933 33.973492 -0.192664
                CHANNELS 3 Zrotation Xrotation Yrotation
                JOINT LeftArm
                {
                    OFFSET 21.527611 0.000000 0.000000
                    CHANNELS 3 Zrotation Xrotation Yrotation
                    JOINT LeftForeArm
                    {
                        OFFSET 56.353916 0.000000 0.000000
                        CHANNELS 3 Zrotation Xrotation Yrotation
                        JOINT LeftHand
                        {
                            OFFSET 47.774071 0.000000 0.000000
                            CHANNELS 3 Zrotation Xrotation Yrotation
                            End Site
                            {
                                OFFSET 26.556021 0.000000 0.000000
                            }
                        }
                    }
                }
            }
            JOINT RightShoulder
            {
                OFFSET -7.065357 33.973492 -0.192664
                CHANNELS 3 Zrotation Xrotation Yrotation
                JOINT RightArm
                {
                    OFFSET -21.527611 0.000000 0.000000
                    CHANNELS 3 Zrotation Xrotation Yrotation
                    JOINT RightForeArm
                    {
                        OFFSET -56.353916 0.000000 0.000000
                        CHANNELS 3 Zrotation Xrotation Yrotation
                        JOINT RightHand
                        {
                            OFFSET -47.774071 0.000000 0.000000
                            CHANNELS 3 Zrotation Xrotation Yrotation
                            End Site
                            {
                                OFFSET -26.556021 0.000000 0.000000
                            }
                        }
                    }
                }
            }
        }
    }
    JOINT LeftUpLeg
    {
        OFFSET 17.704014 0.000000 0.000000
        CHANNELS 3 Zrotation Xrotation Yrotation
        JOINT LeftLeg
        {
            OFFSET -0.000000 -81.181816 0.000000
            CHANNELS 3 Zrotation Xrotation Yrotation
            JOINT LeftFoot
            {
                OFFSET -0.000000 -62.821102 0.000000
                CHANNELS 3 Zrotation Xrotation Yrotation
                JOINT LeftToeBase
                {
                    OFFSET -0.000000 -11.507608 26.556021
                    CHANNELS 3 Zrotation Xrotation Yrotation
                    End Site
                    {
                        OFFSET -0.000000 0.000000 7.081605
                    }
                }
            }
        }
    }
    JOINT RightUpLeg
    {
        OFFSET -17.704014 0.000000 0.000000
        CHANNELS 3 Zrotation Xrotation Yrotation
        JOINT RightLeg
        {
            OFFSET -0.000000 -81.181816 0.000000
            CHANNELS 3 Zrotation Xrotation Yrotation
            JOINT RightFoot
            {
                OFFSET -0.000000 -62.821102 0.000000
                CHANNELS 3 Zrotation Xrotation Yrotation
                JOINT RightToeBase
                {
                    OFFSET -0.000000 -11.507608 26.556021
                    CHANNELS 3 Zrotation Xrotation Yrotation
                    End Site
                    {
                        OFFSET -0.000000 0.000000 7.081605
                    }
                }
            }
        }
    }
}
MOTION
Frames:    13
Frame Time:    0.008333
27.584442    155.464676    67.069954    6.216502    1.408578    -71.639893    0.489792    -0.847764    1.877970    -0.079997    1.822290    0.625880    16.174835    3.705890    11.681307    -10.920007    1.299468    8.856583    10.252111    3.878316    -13.683835    -12.606924    -2.716714    -19.482029    13.815130    -1.405542    -52.404961    -1.725207    6.068931    -41.100155    -10.427958    0.037257    -5.229681    27.997461    -22.648849    38.273903    6.187536    -20.763281    105.836792    13.297771    -25.077490    29.551508    25.659746    -23.110168    15.162139    -22.801723    33.811855    -5.830546    -3.665858    -12.367743    50.227314    0.000000    0.000000    0.000000    -27.033552    -14.649038    -21.834888    3.536059    20.662561    -12.079095    8.200622    -6.921723    -9.853971    0.000000    0.000000    0.000000    
27.565670    155.574554    67.007271    6.194820    1.419508    -71.475616    0.442701    -0.838548    1.823190    -0.063893    1.813950    0.607535    16.192739    3.708143    11.646724    -10.891577    1.269295    8.819529    10.294786    3.857598    -13.724334    -12.557589    -2.574441    -19.474730    13.802003    -1.639387    -52.357548    -1.852293    5.872620    -41.237213    -10.398005    0.016771    -5.245606    27.987659    -22.613665    38.288200    6.158069    -20.804611    105.848129    13.291833    -25.088312    29.522552    25.532459    -23.092890    14.945988    -22.599703    33.579182    -5.954790    -3.797687    -12.243771    50.259613    0.000000    0.000000    0.000000    -26.790424    -14.650741    -20.727423    3.448412    20.572187    -11.797524    8.242377    -7.119585    -9.558673    0.000000    0.000000    0.000000    
27.549303    155.676041    66.932404    6.174239    1.425804    -71.306183    0.381629    -0.812863    1.774160    -0.042869    1.808014    0.590923    16.239428    3.608183    11.619703    -10.881903    1.360731    8.780883    10.349296    3.841905    -13.744461    -12.515151    -2.544004    -19.508421    13.912959    -1.617210    -52.312977    -1.696771    5.890532    -41.560852    -10.359501    -0.022160    -5.290218    27.966785    -22.572599    38.313068    6.154560    -20.839802    105.875908    13.259659    -25.130768    29.514071    25.420292    -23.078630    14.688139    -22.475952    33.315117    -5.735373    -3.964904    -12.081167    50.053165    0.000000    0.000000    0.000000    -26.567753    -14.644208    -19.598747    3.467728    20.544174    -11.583108    8.221716    -7.445819    -9.309699    0.000000    0.000000    0.000000    
27.530245    155.765457    66.852135    6.150023    1.422580    -71.132057    0.286724    -0.770975    1.728547    0.016961    1.776678    0.574986    16.294090    3.555088    11.582782    -10.903734    1.411765    8.729904    10.388069    3.842119    -13.794189    -12.479495    -2.630070    -19.514860    13.882272    -1.476934    -52.354313    -1.714005    6.018730    -41.046913    -10.326570    -0.046381    -5.323856    27.930912    -22.537724    38.306911    6.136696    -20.880091    105.897293    13.270206    -25.149580    29.504841    25.308338    -23.061932    14.457035    -22.333172    33.086056    -5.817815    -4.080107    -11.945926    50.074959    0.000000    0.000000    0.000000    -26.384266    -14.660524    -18.376381    3.525412    20.536043    -11.262324    8.190413    -7.637685    -9.277987    0.000000    0.000000    0.000000    
27.483452    155.840775    66.741119    6.107476    1.421981    -70.949272    0.175677    -0.742422    1.676625    0.099930    1.775874    0.556745    16.311520    3.495905    11.543529    -10.876915    1.473142    8.687288    10.416700    3.814059    -13.855605    -12.428683    -2.645118    -19.513529    13.864531    -1.443507    -52.318188    -1.656742    6.017066    -41.081100    -10.319059    -0.063652    -5.327905    27.944477    -22.569683    38.277340    6.139998    -20.844982    105.928749    13.297382    -25.118601    29.493328    25.224585    -23.022676    14.272061    -22.177786    32.877018    -5.935438    -4.218852    -11.839390    50.072796    0.000000    0.000000    0.000000    -26.173731    -14.635868    -17.019901    3.616377    20.486322    -11.245111    8.121030    -7.825242    -9.061252    0.000000    0.000000    0.000000    
27.464687    155.896210    66.724022    6.096517    1.420386    -70.766708    0.239377    -0.769527    1.621345    -0.018097    1.818118    0.539911    16.326509    3.446707    11.507524    -10.838519    1.500904    8.648139    10.465205    3.770642    -13.910649    -12.382451    -2.633512    -19.516140    13.791296    -1.551685    -52.228542    -1.534316    5.826078    -41.877232    -10.304168    -0.098159    -5.341097    27.958384    -22.565607    38.261456    6.123057    -20.833862    105.942078    13.315454    -25.081230    29.524878    25.087070    -23.021349    14.012579    -22.062208    32.671032    -5.982515    -4.274368    -11.793025    50.100731    0.000000    0.000000    0.000000    -26.053669    -14.663677    -15.862658    3.705665    20.534311    -10.995970    8.142635    -7.982585    -8.877246    0.000000    0.000000    0.000000    
27.446629    155.947784    66.623352    6.077847    1.409790    -70.574501    0.175478    -0.724328    1.557853    -0.002366    1.777411    0.518756    16.308094    3.423913    11.467433    -10.775956    1.518731    8.614832    10.496422    3.767068    -13.951357    -12.327568    -2.608861    -19.536837    13.829350    -1.546457    -52.146767    -1.656009    5.881091    -41.687275    -10.294616    -0.099046    -5.349485    27.953070    -22.579010    38.247917    6.137561    -20.808718    105.971512    13.325951    -25.076653    29.520773    24.996538    -23.025913    13.798626    -21.961815    32.484570    -6.051702    -4.390857    -11.707020    50.103149    0.000000    0.000000    0.000000    -25.915455    -14.715248    -14.590014    3.828793    20.619526    -10.849321    8.142905    -8.121891    -8.839342    0.000000    0.000000    0.000000    
27.424675    155.988449    66.505226    6.072915    1.399906    -70.360405    0.090970    -0.687470    1.476807    0.028297    1.730935    0.491434    16.301250    3.411750    11.424176    -10.734841    1.526484    8.574691    10.532537    3.772610    -13.982552    -12.279089    -2.615369    -19.575115    13.781641    -1.547119    -52.088158    -1.610098    5.830961    -41.713375    -10.287344    -0.090817    -5.354841    27.964762    -22.597944    38.250515    6.162706    -20.787367    106.010284    13.318146    -25.091900    29.534067    24.915052    -23.059017    13.606026    -21.861572    32.321548    -6.145081    -4.515811    -11.615998    50.098736    0.000000    0.000000    0.000000    -25.691668    -14.802508    -13.561768    3.755431    20.760391    -10.730750    8.034494    -8.316671    -8.706176    0.000000    0.000000    0.000000    
27.393740    156.017136    66.385536    6.069410    1.383957    -70.150291    0.015114    -0.669995    1.406118    0.043121    1.709335    0.467864    16.290375    3.397741    11.382360    -10.691283    1.536678    8.536794    10.565227    3.755717    -14.030686    -12.239110    -2.630895    -19.604546    13.781072    -1.512837    -52.017883    -1.582637    5.843700    -41.701950    -10.284163    -0.079320    -5.375028    27.976492    -22.607828    38.265266    6.189244    -20.766111    106.052055    13.306702    -25.114502    29.512907    24.832739    -23.073885    13.499641    -21.728140    32.165436    -6.314300    -4.615431    -11.531063    50.105145    0.000000    0.000000    0.000000    -25.583317    -14.860309    -12.634789    3.835171    20.933945    -10.185672    7.928951    -8.544320    -8.965789    0.000000    0.000000    0.000000    
27.365679    156.035690    66.233131    6.067910    1.356348    -69.903572    -0.117050    -0.631922    1.318035    0.107952    1.667749    0.437767    16.266317    3.382501    11.334330    -10.643107    1.555193    8.495181    10.583225    3.748538    -14.078302    -12.195991    -2.656631    -19.646076    13.832378    -1.491932    -51.931530    -1.664124    5.907251    -41.675617    -10.279306    -0.068154    -5.399490    27.959042    -22.558933    38.268448    6.168644    -20.835428    106.090775    13.287831    -25.167902    29.501526    24.754435    -23.118494    13.346658    -21.638170    32.018753    -6.428140    -4.742270    -11.432949    50.090313    0.000000    0.000000    0.000000    -25.496191    -14.904790    -11.763698    3.947033    21.086372    -10.072795    7.966133    -8.689750    -8.989905    0.000000    0.000000    0.000000    
27.328487    156.040970    66.102516    6.054776    1.344784    -69.638557    -0.152194    -0.621599    1.226641    0.077490    1.682930    0.407764    16.249563    3.333323    11.286395    -10.580731    1.579403    8.450125    10.628304    3.718519    -14.128543    -12.160254    -2.675925    -19.694323    13.895883    -1.390499    -51.864342    -1.380561    5.922509    -41.711723    -10.265166    -0.088818    -5.447587    27.968582    -22.536892    38.276867    6.161314    -20.857492    106.123062    13.310412    -25.175959    29.530268    24.692368    -23.168627    13.200315    -21.565695    31.901367    -6.525291    -4.847812    -11.366350    50.061199    0.000000    0.000000    0.000000    -25.437454    -14.917129    -11.072409    4.092656    21.259207    -9.991445    7.755402    -8.870969    -8.957591    0.000000    0.000000    0.000000    
27.286217    156.032852    65.961617    6.040193    1.346662    -69.362061    -0.197697    -0.604235    1.121283    0.101859    1.679529    0.372279    16.192888    3.275445    11.239645    -10.509411    1.629020    8.413354    10.623211    3.704914    -14.158503    -12.115757    -2.676524    -19.746866    13.890803    -1.430506    -51.795628    -1.401314    5.877833    -41.711559    -10.290965    -0.109163    -5.466600    27.979530    -22.528437    38.253391    6.140582    -20.873018    106.169952    13.392589    -25.150793    29.542917    24.656544    -23.225355    13.130904    -21.468620    31.816870    -6.691028    -4.937282    -11.308253    50.006531    0.000000    0.000000    0.000000    -25.392262    -14.925903    -10.630744    4.185045    21.474062    -9.879770    7.733902    -9.019648    -8.949058    0.000000    0.000000    0.000000    
27.241224    156.022751    65.810051    6.026876    1.363792    -69.077034    -0.226282    -0.594733    1.010097    0.125774    1.692162    0.334937    16.121851    3.199660    11.205121    -10.427243    1.670364    8.389135    10.623732    3.682222    -14.161271    -12.086112    -2.660855    -19.825085    13.910332    -1.488431    -51.709911    -1.526352    5.862369    -41.584274    -10.319743    -0.133955    -5.497986    27.990059    -22.541233    38.247711    6.134368    -20.859261    106.210800    13.377291    -25.143723    29.503763    24.650351    -23.286531    13.068402    -21.402197    31.720924    -6.797089    -5.021951    -11.226727    49.904713    0.000000    0.000000    0.000000    -25.366257    -14.920025    -10.337955    4.273927    21.687656    -9.778320    7.734466    -9.133063    -9.002774    0.000000    0.000000    0.000000    
